<?xml version="1.0" encoding="UTF-8"?><svg id="NOTEXT" xmlns="http://www.w3.org/2000/svg" viewBox="0 0 386.98 131.56"><defs><style>.cls-1{fill:#1d252c;}</style></defs><path class="cls-1" d="m98.3,32.3c.22-.07.44-.15.66-.22-.22.92-.44,1.85-.66,2.77-.64,2.61-2.19,4.33-4.67,5.22-1.18.42-2.11.49-2.79.19-.68-.3-1.07-.97-1.15-2.04-.06-.74.04-1.69.3-2.83.75-3.29,1.5-6.58,2.25-9.87.16-.66.23-1.13.2-1.4-.03-.36-.2-.49-.5-.38-.6.22-1.27,1.09-2.02,2.61-.74,1.52-1.49,3.65-2.24,6.39-.75,2.74-1.43,5.96-2.05,9.66,0-.02,0-.04,0-.07,0,.06-.01.12-.02.18-2.05.75-4.09,1.48-6.14,2.17,1.43-8.22,2.86-16.47,4.29-24.72-1.14.66-2.48,1.27-4.03,1.8-.65.22-1.36.42-2.12.6-1.14,6.67-2.28,13.32-3.43,19.95-.11.73-.15,1.24-.12,1.54.05.61.3.99.75,1.12.45.13,1.2.08,2.24-.19-.03.24-.05.48-.08.73-1.62.44-4.04,1.17-7.26,1.94-3.08.73-5.34,1.12-6.79,1.38.03-.24.05-.47.08-.71.99-.18,1.75-.42,2.28-.71.53-.29.93-.69,1.2-1.2.27-.51.49-1.22.65-2.14,1.2-6.78,2.41-13.6,3.61-20.45-1.19.16-2.28.34-3.28.54-1.83.38-3.13.77-3.91,1.28.91-.01,1.68.22,2.31.71.63.49.98,1.19,1.05,2.11.08.98-.18,1.87-.77,2.64-.59.77-1.36,1.24-2.31,1.38-.97.14-1.76-.1-2.37-.7-.61-.6-.95-1.37-1.03-2.3-.06-.74.08-1.47.41-2.2.34-.73.94-1.36,1.8-1.91,1.09-.7,2.61-1.2,4.58-1.59,1.04-.21,2.2-.42,3.48-.64,1.28-.22,2.5-.44,3.67-.64,2.52-.44,4.4-.93,5.62-1.34,1.62-.55,2.9-1.16,3.85-1.81.15-.87.31-1.74.46-2.61,2.21-.98,4.33-2.22,6.38-3.67-.99,5.78-1.99,11.56-2.98,17.34.64-2.07,1.31-3.76,2.01-5.05.7-1.3,1.48-2.3,2.32-3.02.85-.72,1.83-1.28,2.97-1.68.99-.35,1.78-.36,2.35-.02.58.34.9.96.98,1.87.05.66-.02,1.44-.23,2.35-.86,3.75-1.73,7.5-2.59,11.26-.09.31-.13.59-.11.84.04.43.25.57.64.44.67-.23,1.22-1.16,1.66-2.77.19-.72.38-1.43.57-2.15Z"/><path class="cls-1" d="m114.2,23.54c-2.04,1.73-4.53,3.27-7.46,4.7-.02.63,0,1.22.04,1.77.1,1.25.42,2.06.94,2.42.53.36,1.26.44,2.21.24.58-.12,1.31-.46,2.19-1.01.88-.55,1.7-1.29,2.47-2.23.19.07.38.14.58.21-.77,1.42-1.87,2.68-3.3,3.83-1.43,1.15-3.13,1.95-5.09,2.44-1.71.43-3.17.42-4.39-.07-1.22-.49-1.89-1.48-2.01-3.01-.19-2.22.22-4.6,1.21-7.1.99-2.51,2.44-4.74,4.35-6.63,1.91-1.88,4.09-3.09,6.54-3.5,1.29-.22,2.36-.09,3.19.35.83.43,1.28,1.16,1.36,2.16.16,1.95-.78,3.7-2.83,5.43Zm-4.48-5.24c-.72,1.15-1.35,2.59-1.89,4.3-.54,1.71-.89,3.38-1.04,5,1.17-1.01,2.17-2.03,3-3.07.89-1.14,1.58-2.33,2.05-3.58.47-1.25.65-2.51.55-3.8-.05-.57-.26-.83-.63-.76-.65.12-1.33.75-2.05,1.9Z"/><path class="cls-1" d="m54.51,68.35c-.64.31-1.29.62-1.93.93,0-3.24-.19-5.79-.55-7.63-.5-2.52-1.4-4.31-2.7-5.39-1.46-1.24-3.02-1.84-4.67-1.78-1.65.06-3.61.67-5.88,1.83-4.53,2.33-8.43,6.4-11.7,12.15-3.27,5.76-5.49,12.32-6.66,19.65-1.17,7.33-1.09,14.39.25,21.17,1.1,5.57,2.91,9.16,5.44,10.78,2.53,1.62,5.58,1.48,9.18-.4,1.97-1.03,3.89-2.49,5.75-4.39,1.86-1.9,3.4-3.97,4.62-6.23,1.2-2.37,2.17-4.8,2.93-7.28.76-2.49,1.53-5.76,2.33-9.82.64-.31,1.29-.62,1.93-.93-.83,10.99-1.23,18.53-1.19,22.62-.64.31-1.29.62-1.93.94-.06-1.26-.16-2.25-.3-2.98-.29-1.45-.81-1.99-1.57-1.62-.47.23-1,.77-1.6,1.62-4.7,6.32-10.16,11.09-16.34,14.4-8.61,4.62-15.29,6.43-20.09,5.2-4.8-1.23-7.85-5.18-9.19-11.96-1.29-6.56-.66-14.02,1.9-22.37,2.56-8.34,6.78-16.39,12.71-24.01,5.93-7.62,12.99-13.64,21.23-17.93,3.19-1.66,5.86-2.47,8-2.48,2.14,0,4.14.47,5.99,1.4.57.28,1.03.33,1.38.16,1.17-.57,2.04-2.82,2.6-6.76.61-.29,1.23-.59,1.84-.88-.98,5.73-1.58,13.06-1.79,21.98Z"/><path class="cls-1" d="m60.6,79.22c1.32-5.97,3.95-11.66,7.92-17.01,3.97-5.35,9.28-9.46,15.98-12.2,5.15-2.11,9.33-2.39,12.53-.93,3.2,1.47,5.27,4.57,6.19,9.25.96,4.85.77,10.2-.56,16.05-1.33,5.86-4.01,11.32-8.01,16.45-4.01,5.14-9.36,9.05-16.03,11.87-5.14,2.17-9.29,2.67-12.45,1.4-3.17-1.27-5.2-4.18-6.11-8.78-.94-4.76-.76-10.14.56-16.1Zm18.75-18.35c-1.7,5.31-2.89,11.37-3.55,18.18-.67,6.81-.51,12.7.47,17.66.35,1.75.72,2.92,1.13,3.51.41.59.9.76,1.49.52,1.6-.67,3.24-3.58,4.95-8.72,1.7-5.14,2.9-11.06,3.59-17.76.69-6.71.5-12.73-.55-18.06-.39-1.98-.79-3.25-1.18-3.79-.4-.54-.83-.72-1.3-.52-1.66.68-3.34,3.67-5.04,8.98Z"/><path class="cls-1" d="m183.24,53.83c.57-.12,1.15-.23,1.72-.35-.34,2.3-.67,4.61-1.01,6.91-.99,6.51-4.72,10.41-11.16,11.87-4.04.92-7.08.37-9.12-1.71-1.05-1.15-1.73-2.57-2.06-4.27-.38-1.93-.37-4.32.02-7.17,1.11-8.21,2.22-16.41,3.34-24.61.19-1.27.22-2.26.08-2.96-.14-.7-.45-.99-.93-.88-1.87.46-3.79,3.23-5.76,8.33-1.97,5.1-3.59,12.99-4.85,23.68-.42,4.46-.85,8.92-1.27,13.38-5.35,1.43-10.7,2.96-16.04,4.56,1.23-13.14,2.46-26.27,3.69-39.4.05-.38.11-.92.16-1.61.06-.69.05-1.21-.02-1.56-.11-.58-.47-.78-1.07-.6-2.16.64-4.11,3.72-5.85,9.25-1.74,5.53-3.22,12.98-4.42,22.37-.31,4.72-.62,9.44-.93,14.17-5.3,1.69-10.59,3.46-15.87,5.31,1.19-13.7,2.38-27.41,3.56-41.1.07-.94.05-1.7-.07-2.27-.1-.51-.28-.85-.53-1.01-.25-.16-.62-.15-1.1.01-1.73.6-2.96,2.97-3.68,7.08-.34,1.99-.68,3.98-1.02,5.97-.57.2-1.13.41-1.7.61.39-2.53.79-5.06,1.18-7.59.53-3.43,1.79-6.28,3.78-8.5,1.99-2.23,4.44-3.84,7.37-4.82,3.11-1.04,5.5-1.04,7.16-.05,1.66,1,2.72,2.69,3.19,5.05.22,1.1.28,2.57.2,4.44-.1,1.41-.21,2.82-.31,4.23,1.46-6.46,3.48-11.42,6.04-14.86,2.57-3.44,5.98-5.78,10.24-6.97,5.29-1.48,8.39.17,9.3,4.83.34,1.75.39,3.91.13,6.49-.04.59-.08,1.19-.13,1.78,1.55-6.28,3.61-10.89,6.17-13.79,2.56-2.9,5.73-4.81,9.53-5.68,5.42-1.24,8.59.52,9.49,5.16.34,1.77.33,3.97-.03,6.62-1.29,9.37-2.58,18.74-3.86,28.11-.11,1.07-.12,1.8-.04,2.21.21,1.06.82,1.47,1.84,1.25,1.75-.38,2.99-2.56,3.71-6.57.31-1.78.63-3.56.94-5.34Z"/><path class="cls-1" d="m232.47,15.86c2.52,2.3,4.23,5.83,5.13,10.58.93,4.93.8,10.21-.4,15.84-1.2,5.63-3.53,10.49-6.98,14.61-3.46,4.13-7.92,6.54-13.41,7.3-1.63.23-3.23.29-4.79.19-1.57-.1-2.95-.33-4.14-.7-.22,2.27-.43,4.54-.65,6.81-.15,1.8-.14,3.14.03,4.04.32,1.66,1.12,2.7,2.41,3.11,1.29.41,3.26.45,5.93.13-.06.65-.12,1.3-.18,1.96-.82.09-1.64.17-2.46.26-6.9.84-11.35,1.52-13.34,1.87-2.05.36-6.22,1.17-12.52,2.6-.53.17-1.19.33-1.97.49.06-.66.12-1.31.18-1.97,2.17-.44,3.66-1.12,4.48-2.08.82-.95,1.32-2.55,1.51-4.79,1.7-19.98,3.4-39.95,5.1-59.91-.87,3.89-2.07,7.48-3.59,10.76-1.52,3.28-3.43,6.74-5.73,10.38-.41-.32-.81-.63-1.22-.95,2.04-3.35,3.68-6.27,4.92-8.77,1.23-2.5,2.42-5.49,3.56-8.98,1.14-3.48,2.11-7.66,2.92-12.52,5.7-1.5,11.11-3.54,16.25-6.13-.75,8.38-1.5,16.75-2.25,25.13,1.15-3.72,2.63-6.56,4.46-8.51,1.82-1.94,4.06-3.09,6.71-3.43,4.15-.53,7.49.37,10.02,2.67Zm-15.33,40.07c1.92-3.73,3.2-8.26,3.84-13.61.64-5.35.5-10.45-.42-15.28-.56-2.93-1.11-4.84-1.65-5.75-.54-.91-1.18-1.31-1.9-1.21-1.33.18-2.53,1.38-3.63,3.59-1.09,2.21-2.01,5.12-2.74,8.72-.89,9.9-1.78,19.81-2.67,29.72,1.01.09,1.82.09,2.42,0,2.59-.4,4.84-2.45,6.76-6.17Z"/><path class="cls-1" d="m290.12,43.11c.56,0,1.13,0,1.69.01-.33,2.23-.66,4.46-.99,6.7-.98,6.3-4.65,9.41-11.03,9.5-3.64.05-6.43-.94-8.38-3.02-1.3-1.49-2.15-3.33-2.56-5.52-.12-.67-.19-1.19-.2-1.55-.74,3.76-2.1,6.48-4.08,8.16-1.98,1.68-4.53,2.61-7.64,2.79-3.72.23-6.69-.54-8.91-2.32-2.22-1.79-3.68-4.5-4.38-8.18-1.07-5.66-.65-11.61,1.26-17.84,1.9-6.22,4.75-11.48,8.54-15.71,3.79-4.23,7.75-6.45,11.87-6.63,3.41-.15,5.58,1.53,6.53,4.99.15-1.29.3-2.58.45-3.87,5.78-.23,11.09-.75,15.93-1.6-1.49,13.71-2.98,27.43-4.47,41.16-.09.8-.07,1.53.05,2.2.2,1.1.78,1.65,1.73,1.64,1.73,0,2.95-1.93,3.66-5.78.31-1.71.62-3.43.93-5.14Zm-23.31,7.38c.89-2,1.68-5.55,2.35-10.65.79-7.38,1.59-14.75,2.38-22.13,0-.31-.05-.76-.16-1.37-.32-1.7-1.04-2.54-2.18-2.5-1.67.06-3.39,1.91-5.16,5.54-1.77,3.64-3.02,8.17-3.76,13.6-.74,5.43-.63,10.72.34,15.87.33,1.76.71,2.99,1.15,3.71.43.71,1.04,1.05,1.82,1.01,1.26-.06,2.33-1.08,3.22-3.08Z"/><path class="cls-1" d="m344.85,46.56c.55.07,1.1.14,1.66.2-.32,2.19-.65,4.39-.97,6.58-.96,6.19-4.55,8.89-10.8,8.26-3.74-.37-6.58-1.71-8.5-4.07-1.25-1.51-2.06-3.29-2.43-5.34-.36-1.99-.33-4.43.07-7.34,1.08-7.85,2.17-15.69,3.25-23.53.21-1.39.23-2.58.05-3.58-.17-.93-.54-1.42-1.13-1.47-1.53-.12-3.1,1.9-4.73,6.07-1.63,4.17-3.09,9.56-4.38,16.15-1.29,6.59-2.17,13.25-2.65,19.96-.01-.06-.02-.12-.03-.19,0,.15,0,.31,0,.46-5.22-.29-10.45-.5-15.7-.62,1.18-13.26,2.36-26.52,3.54-39.77.13-1.22.15-2.11.05-2.66-.15-.8-.66-1.21-1.55-1.24-.95-.03-1.73.38-2.34,1.23-.61.84-1.11,2.33-1.49,4.47-.34,1.86-.68,3.72-1.02,5.58-.56-.01-1.13-.02-1.69-.03.39-2.38.78-4.76,1.18-7.15.53-3.24,1.64-5.61,3.31-7.1,1.68-1.49,4.05-2.19,7.13-2.08,3.31.13,5.83,1.05,7.57,2.74,1.73,1.69,2.84,3.83,3.3,6.44.26,1.43.34,2.84.24,4.24-.21,3.17-.43,6.34-.64,9.51,1.2-5.93,2.56-10.45,4.06-13.56,1.5-3.11,3.23-5.22,5.17-6.32,1.94-1.1,4.29-1.53,7.04-1.27,5.73.55,9.04,3.49,9.96,8.67.3,1.69.29,3.77-.01,6.24-1.24,8.95-2.49,17.9-3.74,26.86-.1,1.03-.12,1.76-.04,2.2.2,1.12.79,1.74,1.79,1.85,1.69.19,2.88-1.6,3.59-5.37.3-1.68.6-3.36.91-5.03Z"/><path class="cls-1" d="m386.52,28.39c.94,5.53.44,11.86-1.5,19.01-1.94,7.15-4.72,13.35-8.34,18.66-2.79,4.05-5.9,7.2-9.33,9.46-3.43,2.26-7.02,3.6-10.78,4.02-1.88.21-3.54.22-4.99.03-2.32-.32-4.2-1.09-5.64-2.34-1.44-1.25-2.34-2.84-2.68-4.78-.33-1.88.03-3.41,1.07-4.6,1.04-1.19,2.61-1.66,4.7-1.39,4.18.54,8.22,3.82,12.12,9.83,3.43-1.24,6.36-3.03,8.78-5.42-5.01-16.05-10.05-32.01-15.11-47.89-.58-1.67-1.01-2.79-1.31-3.35-.3-.56-.7-.88-1.23-.95-.58-.08-1.02.23-1.32.92-.3.7-.68,2.21-1.12,4.54-.3,1.67-.6,3.35-.9,5.03-.55-.07-1.1-.14-1.65-.21.32-2.19.65-4.39.97-6.58.53-3.42,1.59-5.73,3.16-6.93,1.57-1.19,3.69-1.6,6.35-1.21,2.89.43,5.31,1.63,7.27,3.58,1.96,1.95,3.58,5.06,4.87,9.33,2.97,10.32,5.94,20.68,8.9,31.06,2.73-5.34,4.61-11.25,5.64-17.77-2.95-2.21-5.46-4.73-7.53-7.58-2.06-2.85-3.34-5.69-3.83-8.53-.41-2.4-.15-4.19.78-5.37.93-1.17,2.46-1.56,4.57-1.14,4.34.86,7.02,4.41,8.06,10.57Z"/><path class="cls-1" d="m319.28,102.37c-1.1-7.51-8.05-14.59-17.52-14.17-9.01.4-16.41,8-16.12,17.47.28,9.14,7.92,16.65,17.42,16.38,8.77-.25,15.17-7,16.21-14.19h-13.99v5.9h-5.34v-17.28h5.34v5.89h13.99Z"/><path class="cls-1" d="m314.23,120.29c-4.1,3.15-8.76,4.41-13.89,3.83-9.1-1.02-16.5-8.59-16.89-18.24-.39-9.66,6.47-18.03,15.88-19.63,4.59-.78,8.94-.03,12.94,2.37,5.22,3.12,8.25,7.77,9.28,13.75h3.09c-.86-10.06-9.68-19.82-22.07-19.83-12.95-.02-23.35,11.11-22.08,24.35,1.18,12.4,12.58,21.82,25.59,19.76,6.2-.98,11.11-4.14,14.74-9.26,2.03-2.86,3.25-6.05,3.75-9.52h-3.02c-.83,5.1-3.22,9.28-7.31,12.43Z"/><path class="cls-1" d="m323.15,103.45c-.91,0-1.67.75-1.67,1.66,0,.92.74,1.66,1.66,1.66.93,0,1.67-.74,1.67-1.66,0-.91-.75-1.66-1.67-1.66Z"/></svg>